<?xml version="1.0" encoding="iso-8859-1"?>
<!-- Generator: Adobe Illustrator 19.0.0, SVG Export Plug-In . SVG Version: 6.00 Build 0)  -->
<svg version="1.1" id="Layer_1" xmlns="http://www.w3.org/2000/svg" xmlns:xlink="http://www.w3.org/1999/xlink" x="0px" y="0px"
	 viewBox="0 0 512 512" style="enable-background:new 0 0 512 512;" xml:space="preserve">
<g>
	<g>
		<path d="M256,0C115.029,0,0,114.081,0,256c0,141.492,114.497,256,256,256c142.821,0,256-115.951,256-256
			C512,113.947,396.896,0,256,0z M33.247,256c0-16.275,1.771-32.143,5.101-47.435c4.745,4.615,10.192,8.725,16.316,12.265
			c21.287,12.302,17.75,57.951,11.125,79.656c-4.157,13.621-4.274,34.754-0.309,55.153c1.815,9.34,4.832,20.378,9.813,30.454
			C48.853,349.466,33.247,304.524,33.247,256z M71.301,192.045c-10.26-5.929-16.841-13.76-20.008-23.838
			C82.823,94.97,152.541,41.909,235.23,34.225c-7.08,5.008-13.146,9.164-17.788,12.176c-30.988,20.101-53.391,35.995-59.427,57.558
			c-2.926,10.445-2.761,26.539,14.639,43.876c9.49,9.455,21.884,17.228,31.843,23.473c5.234,3.281,10.643,6.674,12.961,8.732
			c6.777,6.018,7.923,16.91,8.004,22.867c0.25,18.678-8.452,40.558-20.692,52.024c-27.677,25.93-41.287,55.527-37.339,81.201
			c3.521,22.9,22.894,53.068,38.46,77.309c0.93,1.447,1.844,2.871,2.738,4.267c-7.815-3.307-18.975-7.015-34.148-11.985
			c-21.832-7.151-51.733-16.947-62.047-24.443c-12.909-9.38-20.431-52.776-14.842-71.088c4.007-13.131,7.755-34.851,6.257-56.43
			C101.815,224.518,90.561,203.176,71.301,192.045z M256,478.753c-63.455,0-120.794-26.672-161.404-69.391
			c15.009,10.089,42.707,19.166,69.531,27.954c14.397,4.717,30.714,10.062,35.283,12.777c9.406,5.593,18.614,8.55,26.627,8.55
			c0.001,0,0.001,0,0.001,0c9.839,0,17.96-4.437,22.28-12.172c5.436-9.734,3.723-21.923-5.091-36.229
			c-2.789-4.527-5.982-9.501-9.365-14.766c-13.136-20.456-31.126-48.469-33.574-64.395c-2.221-14.446,7.952-33.842,27.21-51.886
			c19.04-17.84,31.579-48.675,31.203-76.731c-0.268-20.036-6.899-36.386-19.173-47.284c-4.385-3.893-10.404-7.667-17.371-12.036
			c-11.207-7.028-34.529-21.651-32.13-30.221c3.117-11.134,28.625-27.681,45.506-38.629c15.922-10.328,41.145-28.941,53.981-38.524
			c24.022,3.641,46.797,11.129,67.674,21.819c-30.616,20.227-46.623,47.226-46.623,79.272c0,22.549,14.999,39.748,28.233,54.924
			c8.622,9.886,18.395,21.093,16.296,26.616c-6.176,16.234-11.682,29.863-11.57,43.527c0.137,16.73,8.819,29.938,25.806,39.256
			c2.845,1.559,11.442,6.276,72.164,12.694c2.847,9.821,0.171,35.53,5.107,57.302C407.522,435.609,336.706,478.753,256,478.753z
			 M446.822,281.003c-33.539-3.501-56.728-7.329-61.955-9.223c-10.684-5.905-11.288-8.515,1.31-41.574
			c9.178-24.158-8.287-44.185-22.32-60.276c-9.854-11.299-20.043-22.983-20.043-33.072c0-24.377,15.229-44.317,45.295-59.362
			c54.495,40.742,89.644,105.731,89.644,178.504c0,16.132-1.771,32.534-5.366,48.639
			C468.006,285.929,454.443,281.798,446.822,281.003z"/>
	</g>
</g>
<g>
</g>
<g>
</g>
<g>
</g>
<g>
</g>
<g>
</g>
<g>
</g>
<g>
</g>
<g>
</g>
<g>
</g>
<g>
</g>
<g>
</g>
<g>
</g>
<g>
</g>
<g>
</g>
<g>
</g>
</svg>
