<?xml version="1.0" encoding="iso-8859-1"?>
<!-- Generator: Adobe Illustrator 19.0.0, SVG Export Plug-In . SVG Version: 6.00 Build 0)  -->
<svg version="1.1" id="Layer_1" xmlns="http://www.w3.org/2000/svg" xmlns:xlink="http://www.w3.org/1999/xlink" x="0px" y="0px"
	 viewBox="0 0 512.832 512.832" style="enable-background:new 0 0 512.832 512.832;" xml:space="preserve">
<g>
	<g>
		<path d="M480.416,309.333c0-15.125-31.168-70.912-46.72-97.813c1.429-7.68,4.053-25.237,4.053-51.52
			c0-45.547-60.288-160-202.667-160C95.285,0,32.416,106.048,32.416,181.333c0,53.248,31.445,107.819,56.725,151.616
			c14.72,25.536,28.608,49.643,28.608,61.717c0,27.157-44.16,80.981-61.184,99.435c-3.989,4.331-3.712,11.072,0.619,15.061
			c2.048,1.92,4.651,2.837,7.232,2.837c2.88,0,5.739-1.152,7.829-3.413c6.848-7.381,66.837-73.557,66.837-113.877
			c0-17.792-13.888-41.877-31.467-72.363c-24-41.643-53.867-93.419-53.867-140.971c0-52.203,44.331-160,181.333-160
			c136,0,181.333,109.312,181.333,138.667c0,32.64-4.309,50.581-4.352,50.773c-0.661,2.688-0.256,5.547,1.131,7.936
			c21.461,36.864,45.12,82.069,45.909,90.453c-0.981,2.944-12.032,8.64-23.552,11.072c-2.987,0.619-5.547,2.496-7.061,5.12
			c-1.515,2.645-1.835,5.803-0.875,8.683l8.576,25.749l-5.995,5.995c-2.624,2.624-3.392,6.251-2.709,9.643
			c-1.472,0.704-2.944,1.536-4.352,2.773c-3.072,2.709-6.72,7.787-6.72,16.448c0,8.533,3.584,13.867,6.208,17.771
			c2.581,3.861,4.459,6.677,4.459,14.208c0,8.32-3.2,14.741-44.395,21.483c-28.181,4.608-94.272,28.267-94.272,53.184
			c0,5.888,4.629,11.499,10.517,11.499c5.909,0,10.517-3.947,10.539-9.835c3.776-7.616,41.643-28.075,76.672-33.813
			c26.261-4.288,62.272-10.176,62.272-42.517c0-14.08-4.864-21.312-8.085-26.112c-2.155-3.221-2.581-4.011-3.904-5.973
			c5.909,0.832,11.179-3.435,11.904-9.259c0.277-2.24-0.32-4.331-1.301-6.187l8.917-8.917c2.859-2.859,3.861-7.083,2.581-10.923
			l-7.125-21.376C463.669,333.696,480.416,324.992,480.416,309.333z"/>
	</g>
</g>
<g>
</g>
<g>
</g>
<g>
</g>
<g>
</g>
<g>
</g>
<g>
</g>
<g>
</g>
<g>
</g>
<g>
</g>
<g>
</g>
<g>
</g>
<g>
</g>
<g>
</g>
<g>
</g>
<g>
</g>
</svg>
